<svg xmlns="http://www.w3.org/2000/svg" xmlns:xlink="http://www.w3.org/1999/xlink" width="500" zoomAndPan="magnify" viewBox="0 0 375 374.999991" height="500" preserveAspectRatio="xMidYMid meet" version="1.0"><defs><g/><clipPath id="bc9a5edd3c"><path d="M 37.5 37.5 L 337.5 37.5 L 337.5 337.5 L 37.5 337.5 Z M 37.5 37.5 " clip-rule="nonzero"/></clipPath><clipPath id="b00680effb"><path d="M 187.5 37.5 C 104.65625 37.5 37.5 104.65625 37.5 187.5 C 37.5 270.34375 104.65625 337.5 187.5 337.5 C 270.34375 337.5 337.5 270.34375 337.5 187.5 C 337.5 104.65625 270.34375 37.5 187.5 37.5 Z M 187.5 37.5 " clip-rule="nonzero"/></clipPath><clipPath id="303012990e"><path d="M 165.785156 131.484375 L 198.101562 131.484375 L 198.101562 239.515625 L 165.785156 239.515625 Z M 165.785156 131.484375 " clip-rule="nonzero"/></clipPath><clipPath id="f7fe815014"><path d="M 165.785156 113.421875 L 202.007812 113.421875 L 202.007812 147.796875 L 165.785156 147.796875 Z M 165.785156 113.421875 " clip-rule="nonzero"/></clipPath></defs><rect x="-37.5" width="450" fill="#ffffff" y="-37.499999" height="449.999989" fill-opacity="1"/><rect x="-37.5" width="450" fill="#ffffff" y="-37.499999" height="449.999989" fill-opacity="1"/><g clip-path="url(#bc9a5edd3c)"><g clip-path="url(#b00680effb)"><path fill="#272727" d="M 37.5 37.5 L 337.5 37.5 L 337.5 337.5 L 37.5 337.5 Z M 37.5 37.5 " fill-opacity="1" fill-rule="nonzero"/></g></g><g fill="#ffffff" fill-opacity="1"><g transform="translate(76.317042, 239.400325)"><g><path d="M 88.453125 0 L 43.28125 -52.1875 L 43.28125 0 L 11.5625 0 L 11.5625 -107.515625 L 41.71875 -107.515625 L 86.890625 -54.53125 L 86.890625 -107.515625 L 118.609375 -107.515625 L 118.609375 0 Z M 88.453125 0 "/></g></g></g><path stroke-linecap="butt" transform="matrix(0.494289, 0, 0, 0.494289, 119.961465, 78.262113)" fill="none" stroke-linejoin="miter" d="M 290.899732 325.996182 L 290.899732 247.584943 C 290.899732 237.911958 291.26326 227.954473 291.982411 217.712489 C 292.756882 207.470505 293.555062 198.880199 294.376949 191.933668 C 295.198837 184.987137 295.712517 180.561588 295.917989 178.657022 L 294.685157 178.657022 L 254.547011 325.996182 L 199.828263 325.996182 L 159.381909 178.96523 L 158.149077 178.96523 C 158.354549 180.869796 158.915645 185.247928 159.848172 192.091723 C 160.772795 198.935518 161.650002 207.470505 162.47189 217.712489 C 163.341194 227.954473 163.783749 237.911958 163.783749 247.584943 L 163.783749 325.996182 L 99.644904 325.996182 L 99.644904 108.49627 L 198.279321 108.49627 L 231.162728 234.000089 L 232.395559 234.000089 L 264.970759 108.49627 L 360.135861 108.49627 L 360.135861 325.996182 Z M 290.899732 325.996182 " stroke="#272727" stroke-width="45.050236" stroke-opacity="1" stroke-miterlimit="4"/><g fill="#ffffff" fill-opacity="1"><g transform="translate(159.828961, 239.400325)"><g><path d="M 103.921875 0 L 103.921875 -38.75 C 103.921875 -43.539062 104.101562 -48.460938 104.46875 -53.515625 C 104.832031 -58.566406 105.222656 -62.8125 105.640625 -66.25 C 106.054688 -69.6875 106.316406 -71.875 106.421875 -72.8125 L 105.796875 -72.8125 L 85.953125 0 L 58.90625 0 L 38.90625 -72.65625 L 38.28125 -72.65625 C 38.382812 -71.71875 38.671875 -69.554688 39.140625 -66.171875 C 39.609375 -62.785156 40.050781 -58.566406 40.46875 -53.515625 C 40.882812 -48.460938 41.09375 -43.539062 41.09375 -38.75 L 41.09375 0 L 9.375 0 L 9.375 -107.515625 L 58.125 -107.515625 L 74.375 -45.46875 L 75 -45.46875 L 91.109375 -107.515625 L 138.140625 -107.515625 L 138.140625 0 Z M 103.921875 0 "/></g></g></g><g clip-path="url(#303012990e)"><path fill="#ffffff" d="M 165.785156 131.484375 L 198.101562 131.484375 L 198.101562 239.546875 L 165.785156 239.546875 Z M 165.785156 131.484375 " fill-opacity="1" fill-rule="nonzero"/></g><g clip-path="url(#f7fe815014)"><path fill="#ffffff" d="M 202.007812 113.421875 L 202.007812 147.796875 L 165.753906 147.796875 L 165.753906 113.421875 Z M 202.007812 113.421875 " fill-opacity="1" fill-rule="nonzero"/></g><path stroke-linecap="butt" transform="matrix(0.75, -0.000000000000000372, 0.000000000000000372, 0.75, 76.942396, 116.714992)" fill="none" stroke-linejoin="miter" d="M -0.00132 1.999802 L 65.186184 1.999802 " stroke="#ffffff" stroke-width="4" stroke-opacity="1" stroke-miterlimit="4"/><g fill="#ffffff" fill-opacity="1"><g transform="translate(116.963156, 265.444142)"><g><path d="M 4.09375 -8.453125 L 4.09375 0 L 0.984375 0 L 0.984375 -13.625 L 4.09375 -13.625 L 9.515625 -5.171875 L 9.546875 -5.171875 L 9.546875 -13.625 L 12.65625 -13.625 L 12.65625 0 L 9.546875 0 L 4.125 -8.453125 Z M 4.09375 -8.453125 "/></g></g></g><g fill="#ffffff" fill-opacity="1"><g transform="translate(131.675836, 265.444142)"><g><path d="M 7.90625 -13.625 L 13.40625 0 L 10.078125 0 L 9.0625 -2.71875 L 3.875 -2.71875 L 2.875 0 L -0.46875 0 L 5.03125 -13.625 Z M 8.015625 -5.453125 L 6.484375 -9.40625 L 6.453125 -9.40625 L 4.9375 -5.453125 Z M 8.015625 -5.453125 "/></g></g></g><g fill="#ffffff" fill-opacity="1"><g transform="translate(145.695026, 265.444142)"><g><path d="M 11.46875 -13.625 L 11.46875 -4.84375 C 11.46875 -3.164062 11.015625 -1.894531 10.109375 -1.03125 C 9.203125 -0.175781 7.878906 0.25 6.140625 0.25 C 4.398438 0.25 3.078125 -0.175781 2.171875 -1.03125 C 1.273438 -1.894531 0.828125 -3.164062 0.828125 -4.84375 L 0.828125 -13.625 L 3.9375 -13.625 L 3.9375 -5.75 C 3.9375 -4.644531 4.109375 -3.878906 4.453125 -3.453125 C 4.796875 -3.023438 5.359375 -2.8125 6.140625 -2.8125 C 6.921875 -2.8125 7.484375 -3.023438 7.828125 -3.453125 C 8.179688 -3.878906 8.359375 -4.644531 8.359375 -5.75 L 8.359375 -13.625 Z M 11.46875 -13.625 "/></g></g></g><g fill="#ffffff" fill-opacity="1"><g transform="translate(159.053757, 265.444142)"><g><path d="M 12.25 0 L 11.609375 -8.078125 L 11.53125 -8.078125 L 8.734375 -0.078125 L 6.890625 -0.078125 L 4.09375 -8.078125 L 4.015625 -8.078125 L 3.375 0 L 0.265625 0 L 1.484375 -13.625 L 4.796875 -13.625 L 7.8125 -5.765625 L 10.828125 -13.625 L 14.140625 -13.625 L 15.359375 0 Z M 12.25 0 "/></g></g></g><g fill="#ffffff" fill-opacity="1"><g transform="translate(175.747841, 265.444142)"><g/></g></g><g fill="#ffffff" fill-opacity="1"><g transform="translate(181.329565, 265.444142)"><g><path d="M 12.25 0 L 11.609375 -8.078125 L 11.53125 -8.078125 L 8.734375 -0.078125 L 6.890625 -0.078125 L 4.09375 -8.078125 L 4.015625 -8.078125 L 3.375 0 L 0.265625 0 L 1.484375 -13.625 L 4.796875 -13.625 L 7.8125 -5.765625 L 10.828125 -13.625 L 14.140625 -13.625 L 15.359375 0 Z M 12.25 0 "/></g></g></g><g fill="#ffffff" fill-opacity="1"><g transform="translate(198.02365, 265.444142)"><g><path d="M 0.375 -6.828125 C 0.375 -8.796875 1.046875 -10.460938 2.390625 -11.828125 C 3.734375 -13.191406 5.351562 -13.875 7.25 -13.875 C 9.15625 -13.875 10.773438 -13.191406 12.109375 -11.828125 C 13.441406 -10.472656 14.109375 -8.804688 14.109375 -6.828125 C 14.109375 -4.828125 13.453125 -3.144531 12.140625 -1.78125 C 10.828125 -0.425781 9.195312 0.25 7.25 0.25 C 5.257812 0.25 3.613281 -0.421875 2.3125 -1.765625 C 1.019531 -3.117188 0.375 -4.804688 0.375 -6.828125 Z M 3.734375 -6.828125 C 3.734375 -6.109375 3.84375 -5.453125 4.0625 -4.859375 C 4.28125 -4.273438 4.664062 -3.78125 5.21875 -3.375 C 5.769531 -2.96875 6.445312 -2.765625 7.25 -2.765625 C 8.40625 -2.765625 9.273438 -3.160156 9.859375 -3.953125 C 10.453125 -4.742188 10.75 -5.703125 10.75 -6.828125 C 10.75 -7.929688 10.445312 -8.882812 9.84375 -9.6875 C 9.25 -10.488281 8.382812 -10.890625 7.25 -10.890625 C 6.125 -10.890625 5.253906 -10.488281 4.640625 -9.6875 C 4.035156 -8.882812 3.734375 -7.929688 3.734375 -6.828125 Z M 3.734375 -6.828125 "/></g></g></g><g fill="#ffffff" fill-opacity="1"><g transform="translate(213.57843, 265.444142)"><g><path d="M 0.984375 -13.625 L 4.9375 -13.625 C 6.832031 -13.625 8.453125 -12.976562 9.796875 -11.6875 C 11.140625 -10.394531 11.8125 -8.773438 11.8125 -6.828125 C 11.8125 -4.859375 11.140625 -3.226562 9.796875 -1.9375 C 8.460938 -0.644531 6.84375 0 4.9375 0 L 0.984375 0 Z M 4.09375 -2.78125 L 4.578125 -2.78125 C 5.710938 -2.78125 6.640625 -3.160156 7.359375 -3.921875 C 8.078125 -4.691406 8.441406 -5.648438 8.453125 -6.796875 C 8.453125 -7.953125 8.09375 -8.914062 7.375 -9.6875 C 6.65625 -10.457031 5.722656 -10.84375 4.578125 -10.84375 L 4.09375 -10.84375 Z M 4.09375 -2.78125 "/></g></g></g><g fill="#ffffff" fill-opacity="1"><g transform="translate(226.838091, 265.444142)"><g><path d="M 4.09375 -13.625 L 4.09375 0 L 0.984375 0 L 0.984375 -13.625 Z M 4.09375 -13.625 "/></g></g></g><g fill="#ffffff" fill-opacity="1"><g transform="translate(232.997725, 265.444142)"><g><path d="M 0.984375 -13.625 L 5.21875 -13.625 C 6.5 -13.625 7.515625 -13.347656 8.265625 -12.796875 C 9.023438 -12.253906 9.40625 -11.375 9.40625 -10.15625 C 9.40625 -8.789062 8.84375 -7.816406 7.71875 -7.234375 C 9.65625 -6.890625 10.625 -5.742188 10.625 -3.796875 C 10.625 -2.648438 10.222656 -1.726562 9.421875 -1.03125 C 8.628906 -0.34375 7.539062 0 6.15625 0 L 0.984375 0 Z M 4.09375 -8.296875 L 4.34375 -8.296875 C 5.039062 -8.296875 5.554688 -8.414062 5.890625 -8.65625 C 6.234375 -8.894531 6.40625 -9.289062 6.40625 -9.84375 C 6.40625 -10.769531 5.71875 -11.234375 4.34375 -11.234375 L 4.09375 -11.234375 Z M 4.09375 -2.390625 L 5.078125 -2.390625 C 6.585938 -2.390625 7.34375 -2.898438 7.34375 -3.921875 C 7.34375 -4.523438 7.148438 -4.957031 6.765625 -5.21875 C 6.390625 -5.476562 5.828125 -5.609375 5.078125 -5.609375 L 4.09375 -5.609375 Z M 4.09375 -2.390625 "/></g></g></g><g fill="#ffffff" fill-opacity="1"><g transform="translate(245.06854, 265.444142)"><g><path d="M 7.90625 -13.625 L 13.40625 0 L 10.078125 0 L 9.0625 -2.71875 L 3.875 -2.71875 L 2.875 0 L -0.46875 0 L 5.03125 -13.625 Z M 8.015625 -5.453125 L 6.484375 -9.40625 L 6.453125 -9.40625 L 4.9375 -5.453125 Z M 8.015625 -5.453125 "/></g></g></g></svg>